<?xml version="1.0" encoding="utf-8" standalone="no"?>
<!DOCTYPE svg PUBLIC "-//W3C//DTD SVG 1.1//EN"
  "http://www.w3.org/Graphics/SVG/1.1/DTD/svg11.dtd">
<svg xmlns:xlink="http://www.w3.org/1999/xlink" width="885.356875pt" height="346.376875pt" viewBox="0 0 885.356875 346.376875" xmlns="http://www.w3.org/2000/svg" version="1.1">
 <metadata>
  <rdf:RDF xmlns:dc="http://purl.org/dc/elements/1.1/" xmlns:cc="http://creativecommons.org/ns#" xmlns:rdf="http://www.w3.org/1999/02/22-rdf-syntax-ns#">
   <cc:Work>
    <dc:type rdf:resource="http://purl.org/dc/dcmitype/StillImage"/>
    <dc:date>2026-09-29T10:41:52.039967</dc:date>
    <dc:format>image/svg+xml</dc:format>
    <dc:creator>
     <cc:Agent>
      <dc:title>Matplotlib v3.10.8, https://matplotlib.org/</dc:title>
     </cc:Agent>
    </dc:creator>
   </cc:Work>
  </rdf:RDF>
 </metadata>
 <defs>
  <style type="text/css">*{stroke-linejoin: round; stroke-linecap: butt}</style>
 </defs>
 <g id="figure_1">
  <g id="patch_1">
   <path d="M 0 346.376875 
L 885.356875 346.376875 
L 885.356875 0 
L 0 0 
z
" style="fill: #ffffff"/>
  </g>
  <g id="axes_1">
   <g id="patch_2">
    <path d="M 40.603125 301.078125 
L 769.603125 301.078125 
L 769.603125 23.878125 
L 40.603125 23.878125 
z
" style="fill: #ffffff"/>
   </g>
   <g id="axes_2">
    <g id="patch_3">
     <path d="M 40.603125 23.878125 
L 769.603125 23.878125 
L 769.603125 23.878125 
L 40.603125 23.878125 
z
" style="fill: #ffffff"/>
    </g>
    <g id="matplotlib.axis_1">
     <g id="xtick_1">
      <g id="line2d_1">
       <defs>
        <path id="mbc37791215" d="M 0 0 
L 0 -3.5 
" style="stroke: #ff0000; stroke-width: 0.8"/>
       </defs>
       <g>
        <use xlink:href="#mbc37791215" x="148.831283" y="23.878125" style="fill: #ff0000; stroke: #ff0000; stroke-width: 0.8"/>
       </g>
      </g>
      <g id="text_1">
       <!-- EDC -->
       <g style="fill: #ff0000" transform="translate(138.330501 14.798437) scale(0.1 -0.1)">
        <defs>
         <path id="DejaVuSans-45" d="M 628 4666 
L 3578 4666 
L 3578 4134 
L 1259 4134 
L 1259 2753 
L 3481 2753 
L 3481 2222 
L 1259 2222 
L 1259 531 
L 3634 531 
L 3634 0 
L 628 0 
L 628 4666 
z
" transform="scale(0.015625)"/>
         <path id="DejaVuSans-44" d="M 1259 4147 
L 1259 519 
L 2022 519 
Q 2988 519 3436 956 
Q 3884 1394 3884 2338 
Q 3884 3275 3436 3711 
Q 2988 4147 2022 4147 
L 1259 4147 
z
M 628 4666 
L 1925 4666 
Q 3281 4666 3915 4102 
Q 4550 3538 4550 2338 
Q 4550 1131 3912 565 
Q 3275 0 1925 0 
L 628 0 
L 628 4666 
z
" transform="scale(0.015625)"/>
         <path id="DejaVuSans-43" d="M 4122 4306 
L 4122 3641 
Q 3803 3938 3442 4084 
Q 3081 4231 2675 4231 
Q 1875 4231 1450 3742 
Q 1025 3253 1025 2328 
Q 1025 1406 1450 917 
Q 1875 428 2675 428 
Q 3081 428 3442 575 
Q 3803 722 4122 1019 
L 4122 359 
Q 3791 134 3420 21 
Q 3050 -91 2638 -91 
Q 1578 -91 968 557 
Q 359 1206 359 2328 
Q 359 3453 968 4101 
Q 1578 4750 2638 4750 
Q 3056 4750 3426 4639 
Q 3797 4528 4122 4306 
z
" transform="scale(0.015625)"/>
        </defs>
        <use xlink:href="#DejaVuSans-45"/>
        <use xlink:href="#DejaVuSans-44" transform="translate(63.183594 0)"/>
        <use xlink:href="#DejaVuSans-43" transform="translate(140.185547 0)"/>
       </g>
      </g>
     </g>
     <g id="xtick_2">
      <g id="line2d_2">
       <g>
        <use xlink:href="#mbc37791215" x="724.330216" y="23.878125" style="fill: #ff0000; stroke: #ff0000; stroke-width: 0.8"/>
       </g>
      </g>
      <g id="text_2">
       <!-- BELDC -->
       <g style="fill: #ff0000" transform="translate(707.613029 14.798437) scale(0.1 -0.1)">
        <defs>
         <path id="DejaVuSans-42" d="M 1259 2228 
L 1259 519 
L 2272 519 
Q 2781 519 3026 730 
Q 3272 941 3272 1375 
Q 3272 1813 3026 2020 
Q 2781 2228 2272 2228 
L 1259 2228 
z
M 1259 4147 
L 1259 2741 
L 2194 2741 
Q 2656 2741 2882 2914 
Q 3109 3088 3109 3444 
Q 3109 3797 2882 3972 
Q 2656 4147 2194 4147 
L 1259 4147 
z
M 628 4666 
L 2241 4666 
Q 2963 4666 3353 4366 
Q 3744 4066 3744 3513 
Q 3744 3084 3544 2831 
Q 3344 2578 2956 2516 
Q 3422 2416 3680 2098 
Q 3938 1781 3938 1306 
Q 3938 681 3513 340 
Q 3088 0 2303 0 
L 628 0 
L 628 4666 
z
" transform="scale(0.015625)"/>
         <path id="DejaVuSans-4c" d="M 628 4666 
L 1259 4666 
L 1259 531 
L 3531 531 
L 3531 0 
L 628 0 
L 628 4666 
z
" transform="scale(0.015625)"/>
        </defs>
        <use xlink:href="#DejaVuSans-42"/>
        <use xlink:href="#DejaVuSans-45" transform="translate(68.603516 0)"/>
        <use xlink:href="#DejaVuSans-4c" transform="translate(131.787109 0)"/>
        <use xlink:href="#DejaVuSans-44" transform="translate(187.5 0)"/>
        <use xlink:href="#DejaVuSans-43" transform="translate(264.501953 0)"/>
       </g>
      </g>
     </g>
    </g>
    <g id="matplotlib.axis_2"/>
    <g id="patch_4">
     <path d="M 40.603125 23.878125 
L 769.603125 23.878125 
" style="fill: none; stroke: #000000; stroke-width: 0.8; stroke-linejoin: miter; stroke-linecap: square"/>
    </g>
   </g>
   <g id="matplotlib.axis_3">
    <g id="xtick_3">
     <g id="line2d_3">
      <defs>
       <path id="ma6db32efd2" d="M 0 0 
L 0 3.5 
" style="stroke: #000000; stroke-width: 0.8"/>
      </defs>
      <g>
       <use xlink:href="#ma6db32efd2" x="40.603125" y="301.078125" style="stroke: #000000; stroke-width: 0.8"/>
      </g>
     </g>
     <g id="text_3">
      <!-- 0 -->
      <g transform="translate(37.421875 315.676563) scale(0.1 -0.1)">
       <defs>
        <path id="DejaVuSans-30" d="M 2034 4250 
Q 1547 4250 1301 3770 
Q 1056 3291 1056 2328 
Q 1056 1369 1301 889 
Q 1547 409 2034 409 
Q 2525 409 2770 889 
Q 3016 1369 3016 2328 
Q 3016 3291 2770 3770 
Q 2525 4250 2034 4250 
z
M 2034 4750 
Q 2819 4750 3233 4129 
Q 3647 3509 3647 2328 
Q 3647 1150 3233 529 
Q 2819 -91 2034 -91 
Q 1250 -91 836 529 
Q 422 1150 422 2328 
Q 422 3509 836 4129 
Q 1250 4750 2034 4750 
z
" transform="scale(0.015625)"/>
       </defs>
       <use xlink:href="#DejaVuSans-30"/>
      </g>
     </g>
    </g>
    <g id="xtick_4">
     <g id="line2d_4">
      <g>
       <use xlink:href="#ma6db32efd2" x="126.498488" y="301.078125" style="stroke: #000000; stroke-width: 0.8"/>
      </g>
     </g>
     <g id="text_4">
      <!-- 5 -->
      <g transform="translate(123.317238 315.676563) scale(0.1 -0.1)">
       <defs>
        <path id="DejaVuSans-35" d="M 691 4666 
L 3169 4666 
L 3169 4134 
L 1269 4134 
L 1269 2991 
Q 1406 3038 1543 3061 
Q 1681 3084 1819 3084 
Q 2600 3084 3056 2656 
Q 3513 2228 3513 1497 
Q 3513 744 3044 326 
Q 2575 -91 1722 -91 
Q 1428 -91 1123 -41 
Q 819 9 494 109 
L 494 744 
Q 775 591 1075 516 
Q 1375 441 1709 441 
Q 2250 441 2565 725 
Q 2881 1009 2881 1497 
Q 2881 1984 2565 2268 
Q 2250 2553 1709 2553 
Q 1456 2553 1204 2497 
Q 953 2441 691 2322 
L 691 4666 
z
" transform="scale(0.015625)"/>
       </defs>
       <use xlink:href="#DejaVuSans-35"/>
      </g>
     </g>
    </g>
    <g id="xtick_5">
     <g id="line2d_5">
      <g>
       <use xlink:href="#ma6db32efd2" x="212.393851" y="301.078125" style="stroke: #000000; stroke-width: 0.8"/>
      </g>
     </g>
     <g id="text_5">
      <!-- 10 -->
      <g transform="translate(206.031351 315.676563) scale(0.1 -0.1)">
       <defs>
        <path id="DejaVuSans-31" d="M 794 531 
L 1825 531 
L 1825 4091 
L 703 3866 
L 703 4441 
L 1819 4666 
L 2450 4666 
L 2450 531 
L 3481 531 
L 3481 0 
L 794 0 
L 794 531 
z
" transform="scale(0.015625)"/>
       </defs>
       <use xlink:href="#DejaVuSans-31"/>
       <use xlink:href="#DejaVuSans-30" transform="translate(63.623047 0)"/>
      </g>
     </g>
    </g>
    <g id="xtick_6">
     <g id="line2d_6">
      <g>
       <use xlink:href="#ma6db32efd2" x="298.289215" y="301.078125" style="stroke: #000000; stroke-width: 0.8"/>
      </g>
     </g>
     <g id="text_6">
      <!-- 15 -->
      <g transform="translate(291.926715 315.676563) scale(0.1 -0.1)">
       <use xlink:href="#DejaVuSans-31"/>
       <use xlink:href="#DejaVuSans-35" transform="translate(63.623047 0)"/>
      </g>
     </g>
    </g>
    <g id="xtick_7">
     <g id="line2d_7">
      <g>
       <use xlink:href="#ma6db32efd2" x="384.184578" y="301.078125" style="stroke: #000000; stroke-width: 0.8"/>
      </g>
     </g>
     <g id="text_7">
      <!-- 20 -->
      <g transform="translate(377.822078 315.676563) scale(0.1 -0.1)">
       <defs>
        <path id="DejaVuSans-32" d="M 1228 531 
L 3431 531 
L 3431 0 
L 469 0 
L 469 531 
Q 828 903 1448 1529 
Q 2069 2156 2228 2338 
Q 2531 2678 2651 2914 
Q 2772 3150 2772 3378 
Q 2772 3750 2511 3984 
Q 2250 4219 1831 4219 
Q 1534 4219 1204 4116 
Q 875 4013 500 3803 
L 500 4441 
Q 881 4594 1212 4672 
Q 1544 4750 1819 4750 
Q 2544 4750 2975 4387 
Q 3406 4025 3406 3419 
Q 3406 3131 3298 2873 
Q 3191 2616 2906 2266 
Q 2828 2175 2409 1742 
Q 1991 1309 1228 531 
z
" transform="scale(0.015625)"/>
       </defs>
       <use xlink:href="#DejaVuSans-32"/>
       <use xlink:href="#DejaVuSans-30" transform="translate(63.623047 0)"/>
      </g>
     </g>
    </g>
    <g id="xtick_8">
     <g id="line2d_8">
      <g>
       <use xlink:href="#ma6db32efd2" x="470.079941" y="301.078125" style="stroke: #000000; stroke-width: 0.8"/>
      </g>
     </g>
     <g id="text_8">
      <!-- 25 -->
      <g transform="translate(463.717441 315.676563) scale(0.1 -0.1)">
       <use xlink:href="#DejaVuSans-32"/>
       <use xlink:href="#DejaVuSans-35" transform="translate(63.623047 0)"/>
      </g>
     </g>
    </g>
    <g id="xtick_9">
     <g id="line2d_9">
      <g>
       <use xlink:href="#ma6db32efd2" x="555.975304" y="301.078125" style="stroke: #000000; stroke-width: 0.8"/>
      </g>
     </g>
     <g id="text_9">
      <!-- 30 -->
      <g transform="translate(549.612804 315.676563) scale(0.1 -0.1)">
       <defs>
        <path id="DejaVuSans-33" d="M 2597 2516 
Q 3050 2419 3304 2112 
Q 3559 1806 3559 1356 
Q 3559 666 3084 287 
Q 2609 -91 1734 -91 
Q 1441 -91 1130 -33 
Q 819 25 488 141 
L 488 750 
Q 750 597 1062 519 
Q 1375 441 1716 441 
Q 2309 441 2620 675 
Q 2931 909 2931 1356 
Q 2931 1769 2642 2001 
Q 2353 2234 1838 2234 
L 1294 2234 
L 1294 2753 
L 1863 2753 
Q 2328 2753 2575 2939 
Q 2822 3125 2822 3475 
Q 2822 3834 2567 4026 
Q 2313 4219 1838 4219 
Q 1578 4219 1281 4162 
Q 984 4106 628 3988 
L 628 4550 
Q 988 4650 1302 4700 
Q 1616 4750 1894 4750 
Q 2613 4750 3031 4423 
Q 3450 4097 3450 3541 
Q 3450 3153 3228 2886 
Q 3006 2619 2597 2516 
z
" transform="scale(0.015625)"/>
       </defs>
       <use xlink:href="#DejaVuSans-33"/>
       <use xlink:href="#DejaVuSans-30" transform="translate(63.623047 0)"/>
      </g>
     </g>
    </g>
    <g id="xtick_10">
     <g id="line2d_10">
      <g>
       <use xlink:href="#ma6db32efd2" x="641.870668" y="301.078125" style="stroke: #000000; stroke-width: 0.8"/>
      </g>
     </g>
     <g id="text_10">
      <!-- 35 -->
      <g transform="translate(635.508168 315.676563) scale(0.1 -0.1)">
       <use xlink:href="#DejaVuSans-33"/>
       <use xlink:href="#DejaVuSans-35" transform="translate(63.623047 0)"/>
      </g>
     </g>
    </g>
    <g id="xtick_11">
     <g id="line2d_11">
      <g>
       <use xlink:href="#ma6db32efd2" x="727.766031" y="301.078125" style="stroke: #000000; stroke-width: 0.8"/>
      </g>
     </g>
     <g id="text_11">
      <!-- 40 -->
      <g transform="translate(721.403531 315.676563) scale(0.1 -0.1)">
       <defs>
        <path id="DejaVuSans-34" d="M 2419 4116 
L 825 1625 
L 2419 1625 
L 2419 4116 
z
M 2253 4666 
L 3047 4666 
L 3047 1625 
L 3713 1625 
L 3713 1100 
L 3047 1100 
L 3047 0 
L 2419 0 
L 2419 1100 
L 313 1100 
L 313 1709 
L 2253 4666 
z
" transform="scale(0.015625)"/>
       </defs>
       <use xlink:href="#DejaVuSans-34"/>
       <use xlink:href="#DejaVuSans-30" transform="translate(63.623047 0)"/>
      </g>
     </g>
    </g>
    <g id="text_12">
     <!-- x (km) -->
     <g transform="translate(375.915 335.433438) scale(0.18 -0.18)">
      <defs>
       <path id="DejaVuSans-78" d="M 3513 3500 
L 2247 1797 
L 3578 0 
L 2900 0 
L 1881 1375 
L 863 0 
L 184 0 
L 1544 1831 
L 300 3500 
L 978 3500 
L 1906 2253 
L 2834 3500 
L 3513 3500 
z
" transform="scale(0.015625)"/>
       <path id="DejaVuSans-20" transform="scale(0.015625)"/>
       <path id="DejaVuSans-28" d="M 1984 4856 
Q 1566 4138 1362 3434 
Q 1159 2731 1159 2009 
Q 1159 1288 1364 580 
Q 1569 -128 1984 -844 
L 1484 -844 
Q 1016 -109 783 600 
Q 550 1309 550 2009 
Q 550 2706 781 3412 
Q 1013 4119 1484 4856 
L 1984 4856 
z
" transform="scale(0.015625)"/>
       <path id="DejaVuSans-6b" d="M 581 4863 
L 1159 4863 
L 1159 1991 
L 2875 3500 
L 3609 3500 
L 1753 1863 
L 3688 0 
L 2938 0 
L 1159 1709 
L 1159 0 
L 581 0 
L 581 4863 
z
" transform="scale(0.015625)"/>
       <path id="DejaVuSans-6d" d="M 3328 2828 
Q 3544 3216 3844 3400 
Q 4144 3584 4550 3584 
Q 5097 3584 5394 3201 
Q 5691 2819 5691 2113 
L 5691 0 
L 5113 0 
L 5113 2094 
Q 5113 2597 4934 2840 
Q 4756 3084 4391 3084 
Q 3944 3084 3684 2787 
Q 3425 2491 3425 1978 
L 3425 0 
L 2847 0 
L 2847 2094 
Q 2847 2600 2669 2842 
Q 2491 3084 2119 3084 
Q 1678 3084 1418 2786 
Q 1159 2488 1159 1978 
L 1159 0 
L 581 0 
L 581 3500 
L 1159 3500 
L 1159 2956 
Q 1356 3278 1631 3431 
Q 1906 3584 2284 3584 
Q 2666 3584 2933 3390 
Q 3200 3197 3328 2828 
z
" transform="scale(0.015625)"/>
       <path id="DejaVuSans-29" d="M 513 4856 
L 1013 4856 
Q 1481 4119 1714 3412 
Q 1947 2706 1947 2009 
Q 1947 1309 1714 600 
Q 1481 -109 1013 -844 
L 513 -844 
Q 928 -128 1133 580 
Q 1338 1288 1338 2009 
Q 1338 2731 1133 3434 
Q 928 4138 513 4856 
z
" transform="scale(0.015625)"/>
      </defs>
      <use xlink:href="#DejaVuSans-78"/>
      <use xlink:href="#DejaVuSans-20" transform="translate(59.179688 0)"/>
      <use xlink:href="#DejaVuSans-28" transform="translate(90.966797 0)"/>
      <use xlink:href="#DejaVuSans-6b" transform="translate(129.980469 0)"/>
      <use xlink:href="#DejaVuSans-6d" transform="translate(187.890625 0)"/>
      <use xlink:href="#DejaVuSans-29" transform="translate(285.302734 0)"/>
     </g>
    </g>
   </g>
   <g id="matplotlib.axis_4">
    <g id="ytick_1">
     <g id="line2d_12">
      <defs>
       <path id="m4be0459ce6" d="M 0 0 
L -3.5 0 
" style="stroke: #000000; stroke-width: 0.8"/>
      </defs>
      <g>
       <use xlink:href="#m4be0459ce6" x="40.603125" y="301.078125" style="stroke: #000000; stroke-width: 0.8"/>
      </g>
     </g>
     <g id="text_13">
      <!-- 0 -->
      <g transform="translate(27.240625 304.877344) scale(0.1 -0.1)">
       <use xlink:href="#DejaVuSans-30"/>
      </g>
     </g>
    </g>
    <g id="ytick_2">
     <g id="line2d_13">
      <g>
       <use xlink:href="#m4be0459ce6" x="40.603125" y="269.67599" style="stroke: #000000; stroke-width: 0.8"/>
      </g>
     </g>
     <g id="text_14">
      <!-- 10 -->
      <g transform="translate(20.878125 273.475208) scale(0.1 -0.1)">
       <use xlink:href="#DejaVuSans-31"/>
       <use xlink:href="#DejaVuSans-30" transform="translate(63.623047 0)"/>
      </g>
     </g>
    </g>
    <g id="ytick_3">
     <g id="line2d_14">
      <g>
       <use xlink:href="#m4be0459ce6" x="40.603125" y="238.273854" style="stroke: #000000; stroke-width: 0.8"/>
      </g>
     </g>
     <g id="text_15">
      <!-- 20 -->
      <g transform="translate(20.878125 242.073073) scale(0.1 -0.1)">
       <use xlink:href="#DejaVuSans-32"/>
       <use xlink:href="#DejaVuSans-30" transform="translate(63.623047 0)"/>
      </g>
     </g>
    </g>
    <g id="ytick_4">
     <g id="line2d_15">
      <g>
       <use xlink:href="#m4be0459ce6" x="40.603125" y="206.871719" style="stroke: #000000; stroke-width: 0.8"/>
      </g>
     </g>
     <g id="text_16">
      <!-- 30 -->
      <g transform="translate(20.878125 210.670938) scale(0.1 -0.1)">
       <use xlink:href="#DejaVuSans-33"/>
       <use xlink:href="#DejaVuSans-30" transform="translate(63.623047 0)"/>
      </g>
     </g>
    </g>
    <g id="ytick_5">
     <g id="line2d_16">
      <g>
       <use xlink:href="#m4be0459ce6" x="40.603125" y="175.469584" style="stroke: #000000; stroke-width: 0.8"/>
      </g>
     </g>
     <g id="text_17">
      <!-- 40 -->
      <g transform="translate(20.878125 179.268802) scale(0.1 -0.1)">
       <use xlink:href="#DejaVuSans-34"/>
       <use xlink:href="#DejaVuSans-30" transform="translate(63.623047 0)"/>
      </g>
     </g>
    </g>
    <g id="ytick_6">
     <g id="line2d_17">
      <g>
       <use xlink:href="#m4be0459ce6" x="40.603125" y="144.067448" style="stroke: #000000; stroke-width: 0.8"/>
      </g>
     </g>
     <g id="text_18">
      <!-- 50 -->
      <g transform="translate(20.878125 147.866667) scale(0.1 -0.1)">
       <use xlink:href="#DejaVuSans-35"/>
       <use xlink:href="#DejaVuSans-30" transform="translate(63.623047 0)"/>
      </g>
     </g>
    </g>
    <g id="ytick_7">
     <g id="line2d_18">
      <g>
       <use xlink:href="#m4be0459ce6" x="40.603125" y="112.665313" style="stroke: #000000; stroke-width: 0.8"/>
      </g>
     </g>
     <g id="text_19">
      <!-- 60 -->
      <g transform="translate(20.878125 116.464532) scale(0.1 -0.1)">
       <defs>
        <path id="DejaVuSans-36" d="M 2113 2584 
Q 1688 2584 1439 2293 
Q 1191 2003 1191 1497 
Q 1191 994 1439 701 
Q 1688 409 2113 409 
Q 2538 409 2786 701 
Q 3034 994 3034 1497 
Q 3034 2003 2786 2293 
Q 2538 2584 2113 2584 
z
M 3366 4563 
L 3366 3988 
Q 3128 4100 2886 4159 
Q 2644 4219 2406 4219 
Q 1781 4219 1451 3797 
Q 1122 3375 1075 2522 
Q 1259 2794 1537 2939 
Q 1816 3084 2150 3084 
Q 2853 3084 3261 2657 
Q 3669 2231 3669 1497 
Q 3669 778 3244 343 
Q 2819 -91 2113 -91 
Q 1303 -91 875 529 
Q 447 1150 447 2328 
Q 447 3434 972 4092 
Q 1497 4750 2381 4750 
Q 2619 4750 2861 4703 
Q 3103 4656 3366 4563 
z
" transform="scale(0.015625)"/>
       </defs>
       <use xlink:href="#DejaVuSans-36"/>
       <use xlink:href="#DejaVuSans-30" transform="translate(63.623047 0)"/>
      </g>
     </g>
    </g>
    <g id="ytick_8">
     <g id="line2d_19">
      <g>
       <use xlink:href="#m4be0459ce6" x="40.603125" y="81.263178" style="stroke: #000000; stroke-width: 0.8"/>
      </g>
     </g>
     <g id="text_20">
      <!-- 70 -->
      <g transform="translate(20.878125 85.062396) scale(0.1 -0.1)">
       <defs>
        <path id="DejaVuSans-37" d="M 525 4666 
L 3525 4666 
L 3525 4397 
L 1831 0 
L 1172 0 
L 2766 4134 
L 525 4134 
L 525 4666 
z
" transform="scale(0.015625)"/>
       </defs>
       <use xlink:href="#DejaVuSans-37"/>
       <use xlink:href="#DejaVuSans-30" transform="translate(63.623047 0)"/>
      </g>
     </g>
    </g>
    <g id="ytick_9">
     <g id="line2d_20">
      <g>
       <use xlink:href="#m4be0459ce6" x="40.603125" y="49.861042" style="stroke: #000000; stroke-width: 0.8"/>
      </g>
     </g>
     <g id="text_21">
      <!-- 80 -->
      <g transform="translate(20.878125 53.660261) scale(0.1 -0.1)">
       <defs>
        <path id="DejaVuSans-38" d="M 2034 2216 
Q 1584 2216 1326 1975 
Q 1069 1734 1069 1313 
Q 1069 891 1326 650 
Q 1584 409 2034 409 
Q 2484 409 2743 651 
Q 3003 894 3003 1313 
Q 3003 1734 2745 1975 
Q 2488 2216 2034 2216 
z
M 1403 2484 
Q 997 2584 770 2862 
Q 544 3141 544 3541 
Q 544 4100 942 4425 
Q 1341 4750 2034 4750 
Q 2731 4750 3128 4425 
Q 3525 4100 3525 3541 
Q 3525 3141 3298 2862 
Q 3072 2584 2669 2484 
Q 3125 2378 3379 2068 
Q 3634 1759 3634 1313 
Q 3634 634 3220 271 
Q 2806 -91 2034 -91 
Q 1263 -91 848 271 
Q 434 634 434 1313 
Q 434 1759 690 2068 
Q 947 2378 1403 2484 
z
M 1172 3481 
Q 1172 3119 1398 2916 
Q 1625 2713 2034 2713 
Q 2441 2713 2670 2916 
Q 2900 3119 2900 3481 
Q 2900 3844 2670 4047 
Q 2441 4250 2034 4250 
Q 1625 4250 1398 4047 
Q 1172 3844 1172 3481 
z
" transform="scale(0.015625)"/>
       </defs>
       <use xlink:href="#DejaVuSans-38"/>
       <use xlink:href="#DejaVuSans-30" transform="translate(63.623047 0)"/>
      </g>
     </g>
    </g>
    <g id="text_22">
     <!-- Q (relative unit) -->
     <g transform="translate(14.798438 202.038281) rotate(-90) scale(0.1 -0.1)">
      <defs>
       <path id="DejaVuSans-51" d="M 2522 4238 
Q 1834 4238 1429 3725 
Q 1025 3213 1025 2328 
Q 1025 1447 1429 934 
Q 1834 422 2522 422 
Q 3209 422 3611 934 
Q 4013 1447 4013 2328 
Q 4013 3213 3611 3725 
Q 3209 4238 2522 4238 
z
M 3406 84 
L 4238 -825 
L 3475 -825 
L 2784 -78 
Q 2681 -84 2626 -87 
Q 2572 -91 2522 -91 
Q 1538 -91 948 567 
Q 359 1225 359 2328 
Q 359 3434 948 4092 
Q 1538 4750 2522 4750 
Q 3503 4750 4090 4092 
Q 4678 3434 4678 2328 
Q 4678 1516 4351 937 
Q 4025 359 3406 84 
z
" transform="scale(0.015625)"/>
       <path id="DejaVuSans-72" d="M 2631 2963 
Q 2534 3019 2420 3045 
Q 2306 3072 2169 3072 
Q 1681 3072 1420 2755 
Q 1159 2438 1159 1844 
L 1159 0 
L 581 0 
L 581 3500 
L 1159 3500 
L 1159 2956 
Q 1341 3275 1631 3429 
Q 1922 3584 2338 3584 
Q 2397 3584 2469 3576 
Q 2541 3569 2628 3553 
L 2631 2963 
z
" transform="scale(0.015625)"/>
       <path id="DejaVuSans-65" d="M 3597 1894 
L 3597 1613 
L 953 1613 
Q 991 1019 1311 708 
Q 1631 397 2203 397 
Q 2534 397 2845 478 
Q 3156 559 3463 722 
L 3463 178 
Q 3153 47 2828 -22 
Q 2503 -91 2169 -91 
Q 1331 -91 842 396 
Q 353 884 353 1716 
Q 353 2575 817 3079 
Q 1281 3584 2069 3584 
Q 2775 3584 3186 3129 
Q 3597 2675 3597 1894 
z
M 3022 2063 
Q 3016 2534 2758 2815 
Q 2500 3097 2075 3097 
Q 1594 3097 1305 2825 
Q 1016 2553 972 2059 
L 3022 2063 
z
" transform="scale(0.015625)"/>
       <path id="DejaVuSans-6c" d="M 603 4863 
L 1178 4863 
L 1178 0 
L 603 0 
L 603 4863 
z
" transform="scale(0.015625)"/>
       <path id="DejaVuSans-61" d="M 2194 1759 
Q 1497 1759 1228 1600 
Q 959 1441 959 1056 
Q 959 750 1161 570 
Q 1363 391 1709 391 
Q 2188 391 2477 730 
Q 2766 1069 2766 1631 
L 2766 1759 
L 2194 1759 
z
M 3341 1997 
L 3341 0 
L 2766 0 
L 2766 531 
Q 2569 213 2275 61 
Q 1981 -91 1556 -91 
Q 1019 -91 701 211 
Q 384 513 384 1019 
Q 384 1609 779 1909 
Q 1175 2209 1959 2209 
L 2766 2209 
L 2766 2266 
Q 2766 2663 2505 2880 
Q 2244 3097 1772 3097 
Q 1472 3097 1187 3025 
Q 903 2953 641 2809 
L 641 3341 
Q 956 3463 1253 3523 
Q 1550 3584 1831 3584 
Q 2591 3584 2966 3190 
Q 3341 2797 3341 1997 
z
" transform="scale(0.015625)"/>
       <path id="DejaVuSans-74" d="M 1172 4494 
L 1172 3500 
L 2356 3500 
L 2356 3053 
L 1172 3053 
L 1172 1153 
Q 1172 725 1289 603 
Q 1406 481 1766 481 
L 2356 481 
L 2356 0 
L 1766 0 
Q 1100 0 847 248 
Q 594 497 594 1153 
L 594 3053 
L 172 3053 
L 172 3500 
L 594 3500 
L 594 4494 
L 1172 4494 
z
" transform="scale(0.015625)"/>
       <path id="DejaVuSans-69" d="M 603 3500 
L 1178 3500 
L 1178 0 
L 603 0 
L 603 3500 
z
M 603 4863 
L 1178 4863 
L 1178 4134 
L 603 4134 
L 603 4863 
z
" transform="scale(0.015625)"/>
       <path id="DejaVuSans-76" d="M 191 3500 
L 800 3500 
L 1894 563 
L 2988 3500 
L 3597 3500 
L 2284 0 
L 1503 0 
L 191 3500 
z
" transform="scale(0.015625)"/>
       <path id="DejaVuSans-75" d="M 544 1381 
L 544 3500 
L 1119 3500 
L 1119 1403 
Q 1119 906 1312 657 
Q 1506 409 1894 409 
Q 2359 409 2629 706 
Q 2900 1003 2900 1516 
L 2900 3500 
L 3475 3500 
L 3475 0 
L 2900 0 
L 2900 538 
Q 2691 219 2414 64 
Q 2138 -91 1772 -91 
Q 1169 -91 856 284 
Q 544 659 544 1381 
z
M 1991 3584 
L 1991 3584 
z
" transform="scale(0.015625)"/>
       <path id="DejaVuSans-6e" d="M 3513 2113 
L 3513 0 
L 2938 0 
L 2938 2094 
Q 2938 2591 2744 2837 
Q 2550 3084 2163 3084 
Q 1697 3084 1428 2787 
Q 1159 2491 1159 1978 
L 1159 0 
L 581 0 
L 581 3500 
L 1159 3500 
L 1159 2956 
Q 1366 3272 1645 3428 
Q 1925 3584 2291 3584 
Q 2894 3584 3203 3211 
Q 3513 2838 3513 2113 
z
" transform="scale(0.015625)"/>
      </defs>
      <use xlink:href="#DejaVuSans-51"/>
      <use xlink:href="#DejaVuSans-20" transform="translate(78.710938 0)"/>
      <use xlink:href="#DejaVuSans-28" transform="translate(110.498047 0)"/>
      <use xlink:href="#DejaVuSans-72" transform="translate(149.511719 0)"/>
      <use xlink:href="#DejaVuSans-65" transform="translate(188.375 0)"/>
      <use xlink:href="#DejaVuSans-6c" transform="translate(249.898438 0)"/>
      <use xlink:href="#DejaVuSans-61" transform="translate(277.681641 0)"/>
      <use xlink:href="#DejaVuSans-74" transform="translate(338.960938 0)"/>
      <use xlink:href="#DejaVuSans-69" transform="translate(378.169922 0)"/>
      <use xlink:href="#DejaVuSans-76" transform="translate(405.953125 0)"/>
      <use xlink:href="#DejaVuSans-65" transform="translate(465.132812 0)"/>
      <use xlink:href="#DejaVuSans-20" transform="translate(526.65625 0)"/>
      <use xlink:href="#DejaVuSans-75" transform="translate(558.443359 0)"/>
      <use xlink:href="#DejaVuSans-6e" transform="translate(621.822266 0)"/>
      <use xlink:href="#DejaVuSans-69" transform="translate(685.201172 0)"/>
      <use xlink:href="#DejaVuSans-74" transform="translate(712.984375 0)"/>
      <use xlink:href="#DejaVuSans-29" transform="translate(752.193359 0)"/>
     </g>
    </g>
   </g>
   <g id="line2d_21">
    <path d="M 143.556513 301.078124 
L 426.433139 300.96777 
L 460.551747 300.73307 
L 481.352458 300.383269 
L 496.868355 299.909358 
L 508.945284 299.33453 
L 519.325778 298.628465 
L 528.687487 297.77143 
L 536.245279 296.874492 
L 543.967897 295.73426 
L 550.512055 294.551114 
L 556.534348 293.263874 
L 562.685548 291.722768 
L 568.302784 290.099512 
L 574.047819 288.194603 
L 579.176633 286.258548 
L 584.424154 284.031553 
L 589.839419 281.4699 
L 594.62786 278.969913 
L 599.538695 276.151186 
L 605.554883 272.40532 
L 608.997101 270.017246 
L 617.318646 263.891502 
L 622.036832 259.980551 
L 626.900956 255.658281 
L 631.958898 250.881434 
L 636.143767 246.700699 
L 641.508078 240.981775 
L 645.89762 235.976527 
L 650.35215 230.554405 
L 654.915904 224.680691 
L 659.612247 218.317773 
L 664.392151 211.424906 
L 667.990288 205.881061 
L 672.83954 197.952376 
L 677.812456 189.363335 
L 685.66207 175.120051 
L 688.120262 169.979605 
L 690.528152 164.629373 
L 693.27598 159.060793 
L 696.145004 153.264956 
L 698.845404 147.232586 
L 704.258418 134.419243 
L 711.476417 116.891575 
L 713.094825 113.17076 
L 716.05798 105.502115 
L 718.983519 97.520506 
L 720.761989 93.40837 
L 722.702879 89.213162 
L 724.286414 84.933206 
L 725.639378 80.566789 
L 728.268054 71.567551 
L 729.870937 66.93113 
L 733.572755 57.37541 
L 735.254251 52.452288 
L 738.345379 42.305675 
L 739.791382 37.078125 
L 739.791382 37.078125 
" clip-path="url(#p2dab76fa89)" style="fill: none; stroke: #000000; stroke-width: 1.5; stroke-linecap: square"/>
   </g>
   <g id="patch_5">
    <path d="M 40.603125 301.078125 
L 40.603125 23.878125 
" style="fill: none; stroke: #000000; stroke-width: 0.8; stroke-linejoin: miter; stroke-linecap: square"/>
   </g>
   <g id="patch_6">
    <path d="M 40.603125 301.078125 
L 769.603125 301.078125 
" style="fill: none; stroke: #000000; stroke-width: 0.8; stroke-linejoin: miter; stroke-linecap: square"/>
   </g>
   <g id="patch_7">
    <path d="M 40.603125 23.878125 
L 769.603125 23.878125 
" style="fill: none; stroke: #000000; stroke-width: 0.8; stroke-linejoin: miter; stroke-linecap: square"/>
   </g>
  </g>
  <g id="axes_3">
   <g id="matplotlib.axis_5">
    <g id="ytick_10">
     <g id="line2d_22">
      <defs>
       <path id="m3569c0fa72" d="M 0 0 
L 3.5 0 
" style="stroke: #008000; stroke-width: 0.8"/>
      </defs>
      <g>
       <use xlink:href="#m3569c0fa72" x="769.603125" y="295.768397" style="fill: #008000; stroke: #008000; stroke-width: 0.8"/>
      </g>
     </g>
     <g id="text_23">
      <!-- 0.022 -->
      <g style="fill: #008000" transform="translate(776.603125 299.567616) scale(0.1 -0.1)">
       <defs>
        <path id="DejaVuSans-2e" d="M 684 794 
L 1344 794 
L 1344 0 
L 684 0 
L 684 794 
z
" transform="scale(0.015625)"/>
       </defs>
       <use xlink:href="#DejaVuSans-30"/>
       <use xlink:href="#DejaVuSans-2e" transform="translate(63.623047 0)"/>
       <use xlink:href="#DejaVuSans-30" transform="translate(95.410156 0)"/>
       <use xlink:href="#DejaVuSans-32" transform="translate(159.033203 0)"/>
       <use xlink:href="#DejaVuSans-32" transform="translate(222.65625 0)"/>
      </g>
     </g>
    </g>
    <g id="ytick_11">
     <g id="line2d_23">
      <g>
       <use xlink:href="#m3569c0fa72" x="769.603125" y="255.151501" style="fill: #008000; stroke: #008000; stroke-width: 0.8"/>
      </g>
     </g>
     <g id="text_24">
      <!-- 0.024 -->
      <g style="fill: #008000" transform="translate(776.603125 258.95072) scale(0.1 -0.1)">
       <use xlink:href="#DejaVuSans-30"/>
       <use xlink:href="#DejaVuSans-2e" transform="translate(63.623047 0)"/>
       <use xlink:href="#DejaVuSans-30" transform="translate(95.410156 0)"/>
       <use xlink:href="#DejaVuSans-32" transform="translate(159.033203 0)"/>
       <use xlink:href="#DejaVuSans-34" transform="translate(222.65625 0)"/>
      </g>
     </g>
    </g>
    <g id="ytick_12">
     <g id="line2d_24">
      <g>
       <use xlink:href="#m3569c0fa72" x="769.603125" y="214.534606" style="fill: #008000; stroke: #008000; stroke-width: 0.8"/>
      </g>
     </g>
     <g id="text_25">
      <!-- 0.026 -->
      <g style="fill: #008000" transform="translate(776.603125 218.333824) scale(0.1 -0.1)">
       <use xlink:href="#DejaVuSans-30"/>
       <use xlink:href="#DejaVuSans-2e" transform="translate(63.623047 0)"/>
       <use xlink:href="#DejaVuSans-30" transform="translate(95.410156 0)"/>
       <use xlink:href="#DejaVuSans-32" transform="translate(159.033203 0)"/>
       <use xlink:href="#DejaVuSans-36" transform="translate(222.65625 0)"/>
      </g>
     </g>
    </g>
    <g id="ytick_13">
     <g id="line2d_25">
      <g>
       <use xlink:href="#m3569c0fa72" x="769.603125" y="173.91771" style="fill: #008000; stroke: #008000; stroke-width: 0.8"/>
      </g>
     </g>
     <g id="text_26">
      <!-- 0.028 -->
      <g style="fill: #008000" transform="translate(776.603125 177.716928) scale(0.1 -0.1)">
       <use xlink:href="#DejaVuSans-30"/>
       <use xlink:href="#DejaVuSans-2e" transform="translate(63.623047 0)"/>
       <use xlink:href="#DejaVuSans-30" transform="translate(95.410156 0)"/>
       <use xlink:href="#DejaVuSans-32" transform="translate(159.033203 0)"/>
       <use xlink:href="#DejaVuSans-38" transform="translate(222.65625 0)"/>
      </g>
     </g>
    </g>
    <g id="ytick_14">
     <g id="line2d_26">
      <g>
       <use xlink:href="#m3569c0fa72" x="769.603125" y="133.300814" style="fill: #008000; stroke: #008000; stroke-width: 0.8"/>
      </g>
     </g>
     <g id="text_27">
      <!-- 0.030 -->
      <g style="fill: #008000" transform="translate(776.603125 137.100032) scale(0.1 -0.1)">
       <use xlink:href="#DejaVuSans-30"/>
       <use xlink:href="#DejaVuSans-2e" transform="translate(63.623047 0)"/>
       <use xlink:href="#DejaVuSans-30" transform="translate(95.410156 0)"/>
       <use xlink:href="#DejaVuSans-33" transform="translate(159.033203 0)"/>
       <use xlink:href="#DejaVuSans-30" transform="translate(222.65625 0)"/>
      </g>
     </g>
    </g>
    <g id="ytick_15">
     <g id="line2d_27">
      <g>
       <use xlink:href="#m3569c0fa72" x="769.603125" y="92.683918" style="fill: #008000; stroke: #008000; stroke-width: 0.8"/>
      </g>
     </g>
     <g id="text_28">
      <!-- 0.032 -->
      <g style="fill: #008000" transform="translate(776.603125 96.483136) scale(0.1 -0.1)">
       <use xlink:href="#DejaVuSans-30"/>
       <use xlink:href="#DejaVuSans-2e" transform="translate(63.623047 0)"/>
       <use xlink:href="#DejaVuSans-30" transform="translate(95.410156 0)"/>
       <use xlink:href="#DejaVuSans-33" transform="translate(159.033203 0)"/>
       <use xlink:href="#DejaVuSans-32" transform="translate(222.65625 0)"/>
      </g>
     </g>
    </g>
    <g id="ytick_16">
     <g id="line2d_28">
      <g>
       <use xlink:href="#m3569c0fa72" x="769.603125" y="52.067022" style="fill: #008000; stroke: #008000; stroke-width: 0.8"/>
      </g>
     </g>
     <g id="text_29">
      <!-- 0.034 -->
      <g style="fill: #008000" transform="translate(776.603125 55.86624) scale(0.1 -0.1)">
       <use xlink:href="#DejaVuSans-30"/>
       <use xlink:href="#DejaVuSans-2e" transform="translate(63.623047 0)"/>
       <use xlink:href="#DejaVuSans-30" transform="translate(95.410156 0)"/>
       <use xlink:href="#DejaVuSans-33" transform="translate(159.033203 0)"/>
       <use xlink:href="#DejaVuSans-34" transform="translate(222.65625 0)"/>
      </g>
     </g>
    </g>
    <g id="text_30">
     <!-- a (m/yr) -->
     <g style="fill: #008000" transform="translate(816.829687 182.602344) rotate(-90) scale(0.1 -0.1)">
      <defs>
       <path id="DejaVuSans-2f" d="M 1625 4666 
L 2156 4666 
L 531 -594 
L 0 -594 
L 1625 4666 
z
" transform="scale(0.015625)"/>
       <path id="DejaVuSans-79" d="M 2059 -325 
Q 1816 -950 1584 -1140 
Q 1353 -1331 966 -1331 
L 506 -1331 
L 506 -850 
L 844 -850 
Q 1081 -850 1212 -737 
Q 1344 -625 1503 -206 
L 1606 56 
L 191 3500 
L 800 3500 
L 1894 763 
L 2988 3500 
L 3597 3500 
L 2059 -325 
z
" transform="scale(0.015625)"/>
      </defs>
      <use xlink:href="#DejaVuSans-61"/>
      <use xlink:href="#DejaVuSans-20" transform="translate(61.279297 0)"/>
      <use xlink:href="#DejaVuSans-28" transform="translate(93.066406 0)"/>
      <use xlink:href="#DejaVuSans-6d" transform="translate(132.080078 0)"/>
      <use xlink:href="#DejaVuSans-2f" transform="translate(229.492188 0)"/>
      <use xlink:href="#DejaVuSans-79" transform="translate(263.183594 0)"/>
      <use xlink:href="#DejaVuSans-72" transform="translate(322.363281 0)"/>
      <use xlink:href="#DejaVuSans-29" transform="translate(363.476562 0)"/>
     </g>
    </g>
   </g>
   <g id="line2d_29">
    <path d="M 143.556513 140.929385 
L 143.970369 141.171167 
L 148.523268 141.026197 
L 150.180241 141.592511 
L 153.915033 142.837612 
L 158.071601 143.611989 
L 162.639616 142.025569 
L 163.88525 143.520817 
L 167.2225 147.740353 
L 167.640871 147.714385 
L 171.809266 143.955433 
L 172.224522 143.885472 
L 176.813329 149.386485 
L 181.414114 148.901634 
L 183.921184 149.49294 
L 186.010739 150.002482 
L 186.847154 150.631777 
L 191.039332 154.176441 
L 195.659453 155.540218 
L 200.27121 154.962912 
L 204.90319 163.33948 
L 205.74965 163.049754 
L 209.9643 161.203271 
L 214.16095 160.844796 
L 214.580227 161.423737 
L 218.806282 171.914204 
L 219.232163 172.199227 
L 223.457239 166.019935 
L 223.876605 165.672237 
L 228.490629 167.417794 
L 233.1122 170.291539 
L 238.151494 170.111133 
L 243.184957 171.676873 
L 247.378886 172.448401 
L 251.98316 171.746677 
L 256.638232 174.469963 
L 261.24275 174.388407 
L 263.731765 173.417011 
L 266.2095 172.506767 
L 270.744164 172.290029 
L 275.28372 170.065075 
L 276.524596 169.99844 
L 279.849348 169.947174 
L 280.26683 170.079783 
L 284.479244 173.139795 
L 284.904624 173.153431 
L 289.163112 166.542341 
L 289.589801 166.090883 
L 293.89884 167.028762 
L 294.334188 166.827508 
L 298.703622 160.0775 
L 299.142591 159.879514 
L 308.117286 161.267656 
L 308.575886 160.663607 
L 313.174912 151.953011 
L 317.819996 146.648415 
L 322.062045 143.919536 
L 322.537604 143.382904 
L 326.835037 135.603157 
L 327.795233 134.540549 
L 331.666936 130.974892 
L 333.618465 127.135445 
L 336.066817 122.231385 
L 336.557721 121.550205 
L 341.031478 122.90907 
L 342.038376 121.720117 
L 350.177198 110.942565 
L 350.690824 110.744919 
L 354.858615 116.545976 
L 355.386994 117.021603 
L 359.648159 116.725458 
L 360.185068 117.266722 
L 364.544604 125.964169 
L 365.648028 123.193252 
L 368.945048 114.121977 
L 369.493122 113.401166 
L 373.92786 118.912508 
L 375.049971 119.070445 
L 378.436902 119.322138 
L 379.004443 119.024727 
L 382.987511 115.056114 
L 383.558279 115.44678 
L 387.643819 133.723321 
L 388.240891 135.032569 
L 392.391873 118.79343 
L 392.977956 118.789385 
L 397.180336 149.534547 
L 397.795266 150.175986 
L 402.012443 131.058034 
L 403.192152 127.958806 
L 406.696715 119.746689 
L 407.277083 121.589756 
L 411.418511 143.762606 
L 412.020222 143.83562 
L 416.196243 137.83601 
L 417.384251 141.84165 
L 420.989646 154.728393 
L 425.225507 157.236686 
L 425.829771 157.297642 
L 430.030033 153.0942 
L 430.626144 153.33416 
L 434.818141 161.352176 
L 435.419628 161.867982 
L 440.820746 163.375276 
L 444.411139 164.588027 
L 449.168239 160.938914 
L 453.934954 170.826526 
L 458.143675 176.212544 
L 458.746712 176.552369 
L 463.547331 173.785248 
L 467.714885 170.805866 
L 468.308196 170.798858 
L 472.464978 172.116394 
L 473.059034 171.731611 
L 477.203276 167.876544 
L 477.793837 168.311521 
L 481.948235 172.647167 
L 486.134207 175.680453 
L 486.734402 175.982118 
L 490.910112 167.578529 
L 491.502736 166.718472 
L 496.268637 170.379957 
L 500.491909 176.27826 
L 501.099605 175.889475 
L 505.323801 165.772945 
L 505.923825 166.0447 
L 510.163819 171.813832 
L 515.046612 166.825324 
L 519.325778 163.762837 
L 519.938702 163.979196 
L 524.269875 168.299805 
L 528.687487 175.942324 
L 529.325798 174.574345 
L 533.108235 156.438252 
L 533.731362 154.07829 
L 538.160522 164.137038 
L 538.804069 163.918232 
L 542.673583 158.751555 
L 543.320204 158.086051 
L 547.877363 155.238134 
L 552.506748 154.964521 
L 557.210189 150.579382 
L 561.993962 149.179276 
L 566.179287 149.394767 
L 566.885264 149.115838 
L 571.160152 145.727072 
L 577.700943 139.119568 
L 580.660803 136.13617 
L 586.723234 137.006654 
L 591.420038 137.83486 
L 594.62786 138.239206 
L 597.070192 135.58995 
L 598.712766 133.760157 
L 599.538695 133.733554 
L 603.80244 153.155772 
L 604.681283 149.478625 
L 608.14305 121.269774 
L 608.997101 118.703424 
L 613.52916 169.249749 
L 618.254362 139.050978 
L 622.996516 139.460622 
L 626.900956 142.220729 
L 627.894248 143.402654 
L 631.958898 152.020269 
L 632.997583 152.276972 
L 636.143767 150.755692 
L 637.202521 150.554471 
L 641.508078 153.68785 
L 642.601126 152.306539 
L 645.89762 147.227049 
L 647.002802 146.453155 
L 650.35215 145.967463 
L 651.480382 146.447288 
L 656.078493 152.212729 
L 659.612247 154.978994 
L 660.804718 154.893471 
L 665.589881 145.979111 
L 669.193106 140.300461 
L 670.398767 140.532187 
L 674.075949 148.172281 
L 675.320862 147.415704 
L 679.058718 139.753666 
L 680.319771 152.571528 
L 682.958716 183.674212 
L 684.335752 183.259368 
L 688.120262 82.59424 
L 689.292324 90.572424 
L 693.27598 209.173107 
L 697.510024 145.110496 
L 698.845404 137.888311 
L 704.258418 138.675018 
L 707.017749 139.165495 
L 708.427891 158.42917 
L 711.476417 214.294171 
L 713.094825 199.232413 
L 716.05798 123.494672 
L 717.449722 136.401864 
L 720.761989 288.478125 
L 722.702879 236.618712 
L 725.639378 36.478125 
L 726.888354 43.401542 
L 729.870937 218.433583 
L 731.761373 254.494987 
L 735.254251 169.873129 
L 739.791382 70.633272 
L 739.791382 70.633272 
" clip-path="url(#p2dab76fa89)" style="fill: none; stroke: #008000; stroke-width: 1.5; stroke-linecap: square"/>
   </g>
   <g id="patch_8">
    <path d="M 40.603125 301.078125 
L 40.603125 23.878125 
" style="fill: none; stroke: #000000; stroke-width: 0.8; stroke-linejoin: miter; stroke-linecap: square"/>
   </g>
   <g id="patch_9">
    <path d="M 769.603125 301.078125 
L 769.603125 23.878125 
" style="fill: none; stroke: #008000; stroke-width: 0.8; stroke-linejoin: miter; stroke-linecap: square"/>
   </g>
   <g id="patch_10">
    <path d="M 40.603125 301.078125 
L 769.603125 301.078125 
" style="fill: none; stroke: #000000; stroke-width: 0.8; stroke-linejoin: miter; stroke-linecap: square"/>
   </g>
   <g id="patch_11">
    <path d="M 40.603125 23.878125 
L 769.603125 23.878125 
" style="fill: none; stroke: #000000; stroke-width: 0.8; stroke-linejoin: miter; stroke-linecap: square"/>
   </g>
  </g>
  <g id="axes_4">
   <g id="matplotlib.axis_6">
    <g id="ytick_17">
     <g id="line2d_30">
      <defs>
       <path id="maafe5d5d00" d="M 0 0 
L 3.5 0 
" style="stroke: #0000ff; stroke-width: 0.8"/>
      </defs>
      <g>
       <use xlink:href="#maafe5d5d00" x="835.213125" y="298.075176" style="fill: #0000ff; stroke: #0000ff; stroke-width: 0.8"/>
      </g>
     </g>
     <g id="text_31">
      <!-- 0.01 -->
      <g style="fill: #0000ff" transform="translate(842.213125 301.874394) scale(0.1 -0.1)">
       <use xlink:href="#DejaVuSans-30"/>
       <use xlink:href="#DejaVuSans-2e" transform="translate(63.623047 0)"/>
       <use xlink:href="#DejaVuSans-30" transform="translate(95.410156 0)"/>
       <use xlink:href="#DejaVuSans-31" transform="translate(159.033203 0)"/>
      </g>
     </g>
    </g>
    <g id="ytick_18">
     <g id="line2d_31">
      <g>
       <use xlink:href="#maafe5d5d00" x="835.213125" y="245.422835" style="fill: #0000ff; stroke: #0000ff; stroke-width: 0.8"/>
      </g>
     </g>
     <g id="text_32">
      <!-- 0.02 -->
      <g style="fill: #0000ff" transform="translate(842.213125 249.222054) scale(0.1 -0.1)">
       <use xlink:href="#DejaVuSans-30"/>
       <use xlink:href="#DejaVuSans-2e" transform="translate(63.623047 0)"/>
       <use xlink:href="#DejaVuSans-30" transform="translate(95.410156 0)"/>
       <use xlink:href="#DejaVuSans-32" transform="translate(159.033203 0)"/>
      </g>
     </g>
    </g>
    <g id="ytick_19">
     <g id="line2d_32">
      <g>
       <use xlink:href="#maafe5d5d00" x="835.213125" y="192.770494" style="fill: #0000ff; stroke: #0000ff; stroke-width: 0.8"/>
      </g>
     </g>
     <g id="text_33">
      <!-- 0.03 -->
      <g style="fill: #0000ff" transform="translate(842.213125 196.569713) scale(0.1 -0.1)">
       <use xlink:href="#DejaVuSans-30"/>
       <use xlink:href="#DejaVuSans-2e" transform="translate(63.623047 0)"/>
       <use xlink:href="#DejaVuSans-30" transform="translate(95.410156 0)"/>
       <use xlink:href="#DejaVuSans-33" transform="translate(159.033203 0)"/>
      </g>
     </g>
    </g>
    <g id="ytick_20">
     <g id="line2d_33">
      <g>
       <use xlink:href="#maafe5d5d00" x="835.213125" y="140.118154" style="fill: #0000ff; stroke: #0000ff; stroke-width: 0.8"/>
      </g>
     </g>
     <g id="text_34">
      <!-- 0.04 -->
      <g style="fill: #0000ff" transform="translate(842.213125 143.917373) scale(0.1 -0.1)">
       <use xlink:href="#DejaVuSans-30"/>
       <use xlink:href="#DejaVuSans-2e" transform="translate(63.623047 0)"/>
       <use xlink:href="#DejaVuSans-30" transform="translate(95.410156 0)"/>
       <use xlink:href="#DejaVuSans-34" transform="translate(159.033203 0)"/>
      </g>
     </g>
    </g>
    <g id="ytick_21">
     <g id="line2d_34">
      <g>
       <use xlink:href="#maafe5d5d00" x="835.213125" y="87.465813" style="fill: #0000ff; stroke: #0000ff; stroke-width: 0.8"/>
      </g>
     </g>
     <g id="text_35">
      <!-- 0.05 -->
      <g style="fill: #0000ff" transform="translate(842.213125 91.265032) scale(0.1 -0.1)">
       <use xlink:href="#DejaVuSans-30"/>
       <use xlink:href="#DejaVuSans-2e" transform="translate(63.623047 0)"/>
       <use xlink:href="#DejaVuSans-30" transform="translate(95.410156 0)"/>
       <use xlink:href="#DejaVuSans-35" transform="translate(159.033203 0)"/>
      </g>
     </g>
    </g>
    <g id="ytick_22">
     <g id="line2d_35">
      <g>
       <use xlink:href="#maafe5d5d00" x="835.213125" y="34.813473" style="fill: #0000ff; stroke: #0000ff; stroke-width: 0.8"/>
      </g>
     </g>
     <g id="text_36">
      <!-- 0.06 -->
      <g style="fill: #0000ff" transform="translate(842.213125 38.612691) scale(0.1 -0.1)">
       <use xlink:href="#DejaVuSans-30"/>
       <use xlink:href="#DejaVuSans-2e" transform="translate(63.623047 0)"/>
       <use xlink:href="#DejaVuSans-30" transform="translate(95.410156 0)"/>
       <use xlink:href="#DejaVuSans-36" transform="translate(159.033203 0)"/>
      </g>
     </g>
    </g>
    <g id="text_37">
     <!-- surface velocity (m/yr) -->
     <g style="fill: #0000ff" transform="translate(876.077188 219.148438) rotate(-90) scale(0.1 -0.1)">
      <defs>
       <path id="DejaVuSans-73" d="M 2834 3397 
L 2834 2853 
Q 2591 2978 2328 3040 
Q 2066 3103 1784 3103 
Q 1356 3103 1142 2972 
Q 928 2841 928 2578 
Q 928 2378 1081 2264 
Q 1234 2150 1697 2047 
L 1894 2003 
Q 2506 1872 2764 1633 
Q 3022 1394 3022 966 
Q 3022 478 2636 193 
Q 2250 -91 1575 -91 
Q 1294 -91 989 -36 
Q 684 19 347 128 
L 347 722 
Q 666 556 975 473 
Q 1284 391 1588 391 
Q 1994 391 2212 530 
Q 2431 669 2431 922 
Q 2431 1156 2273 1281 
Q 2116 1406 1581 1522 
L 1381 1569 
Q 847 1681 609 1914 
Q 372 2147 372 2553 
Q 372 3047 722 3315 
Q 1072 3584 1716 3584 
Q 2034 3584 2315 3537 
Q 2597 3491 2834 3397 
z
" transform="scale(0.015625)"/>
       <path id="DejaVuSans-66" d="M 2375 4863 
L 2375 4384 
L 1825 4384 
Q 1516 4384 1395 4259 
Q 1275 4134 1275 3809 
L 1275 3500 
L 2222 3500 
L 2222 3053 
L 1275 3053 
L 1275 0 
L 697 0 
L 697 3053 
L 147 3053 
L 147 3500 
L 697 3500 
L 697 3744 
Q 697 4328 969 4595 
Q 1241 4863 1831 4863 
L 2375 4863 
z
" transform="scale(0.015625)"/>
       <path id="DejaVuSans-63" d="M 3122 3366 
L 3122 2828 
Q 2878 2963 2633 3030 
Q 2388 3097 2138 3097 
Q 1578 3097 1268 2742 
Q 959 2388 959 1747 
Q 959 1106 1268 751 
Q 1578 397 2138 397 
Q 2388 397 2633 464 
Q 2878 531 3122 666 
L 3122 134 
Q 2881 22 2623 -34 
Q 2366 -91 2075 -91 
Q 1284 -91 818 406 
Q 353 903 353 1747 
Q 353 2603 823 3093 
Q 1294 3584 2113 3584 
Q 2378 3584 2631 3529 
Q 2884 3475 3122 3366 
z
" transform="scale(0.015625)"/>
       <path id="DejaVuSans-6f" d="M 1959 3097 
Q 1497 3097 1228 2736 
Q 959 2375 959 1747 
Q 959 1119 1226 758 
Q 1494 397 1959 397 
Q 2419 397 2687 759 
Q 2956 1122 2956 1747 
Q 2956 2369 2687 2733 
Q 2419 3097 1959 3097 
z
M 1959 3584 
Q 2709 3584 3137 3096 
Q 3566 2609 3566 1747 
Q 3566 888 3137 398 
Q 2709 -91 1959 -91 
Q 1206 -91 779 398 
Q 353 888 353 1747 
Q 353 2609 779 3096 
Q 1206 3584 1959 3584 
z
" transform="scale(0.015625)"/>
      </defs>
      <use xlink:href="#DejaVuSans-73"/>
      <use xlink:href="#DejaVuSans-75" transform="translate(52.099609 0)"/>
      <use xlink:href="#DejaVuSans-72" transform="translate(115.478516 0)"/>
      <use xlink:href="#DejaVuSans-66" transform="translate(156.591797 0)"/>
      <use xlink:href="#DejaVuSans-61" transform="translate(191.796875 0)"/>
      <use xlink:href="#DejaVuSans-63" transform="translate(253.076172 0)"/>
      <use xlink:href="#DejaVuSans-65" transform="translate(308.056641 0)"/>
      <use xlink:href="#DejaVuSans-20" transform="translate(369.580078 0)"/>
      <use xlink:href="#DejaVuSans-76" transform="translate(401.367188 0)"/>
      <use xlink:href="#DejaVuSans-65" transform="translate(460.546875 0)"/>
      <use xlink:href="#DejaVuSans-6c" transform="translate(522.070312 0)"/>
      <use xlink:href="#DejaVuSans-6f" transform="translate(549.853516 0)"/>
      <use xlink:href="#DejaVuSans-63" transform="translate(611.035156 0)"/>
      <use xlink:href="#DejaVuSans-69" transform="translate(666.015625 0)"/>
      <use xlink:href="#DejaVuSans-74" transform="translate(693.798828 0)"/>
      <use xlink:href="#DejaVuSans-79" transform="translate(733.007812 0)"/>
      <use xlink:href="#DejaVuSans-20" transform="translate(792.1875 0)"/>
      <use xlink:href="#DejaVuSans-28" transform="translate(823.974609 0)"/>
      <use xlink:href="#DejaVuSans-6d" transform="translate(862.988281 0)"/>
      <use xlink:href="#DejaVuSans-2f" transform="translate(960.400391 0)"/>
      <use xlink:href="#DejaVuSans-79" transform="translate(994.091797 0)"/>
      <use xlink:href="#DejaVuSans-72" transform="translate(1053.271484 0)"/>
      <use xlink:href="#DejaVuSans-29" transform="translate(1094.384766 0)"/>
     </g>
    </g>
   </g>
   <g id="line2d_36">
    <path d="M 143.556513 280.416675 
L 148.109317 280.499162 
L 151.009547 280.445835 
L 158.902907 280.47866 
L 165.968595 280.159917 
L 167.2225 280.227978 
L 168.059318 280.222788 
L 170.145534 280.236736 
L 173.888701 280.068827 
L 176.394508 279.830366 
L 180.578449 279.880742 
L 186.847154 279.634121 
L 189.360381 279.712132 
L 190.619461 279.773207 
L 194.819339 279.968852 
L 195.659453 280.024262 
L 198.176685 280.170276 
L 199.015061 280.201751 
L 201.109532 280.273363 
L 203.634968 280.367083 
L 205.74965 280.671133 
L 207.016763 280.905338 
L 210.384389 281.355523 
L 214.16095 281.582274 
L 217.108368 282.201086 
L 217.956315 282.383602 
L 220.082113 282.849798 
L 231.009968 284.504442 
L 233.532943 284.850968 
L 236.053585 285.159225 
L 236.893125 285.262038 
L 239.409507 285.509048 
L 240.248614 285.573318 
L 242.76543 285.779347 
L 244.024052 285.932679 
L 251.565113 286.534521 
L 251.98316 286.477982 
L 253.672729 285.482821 
L 254.947237 285.950686 
L 256.216497 286.355469 
L 262.489075 287.803619 
L 263.731765 287.986666 
L 266.621666 288.307101 
L 274.870592 288.367233 
L 280.684755 287.760236 
L 282.785706 287.480442 
L 285.755418 287.155644 
L 290.874221 286.290686 
L 293.89884 285.639659 
L 296.952147 284.850843 
L 303.134285 282.824935 
L 304.932977 282.225963 
L 310.872082 280.515468 
L 315.025556 279.236047 
L 317.352819 278.438192 
L 320.168449 277.51756 
L 322.537604 276.699456 
L 324.920966 275.884766 
L 331.666936 273.074321 
L 337.049602 270.709997 
L 341.534684 268.624522 
L 343.553069 267.853696 
L 346.089078 266.608901 
L 349.151649 265.020007 
L 351.722815 263.499383 
L 359.648159 259.32749 
L 360.72368 258.816548 
L 363.993477 257.486516 
L 366.74888 256.466562 
L 369.493122 255.268556 
L 373.92786 253.028266 
L 376.739601 251.892116 
L 379.572336 250.706846 
L 382.41712 249.380824 
L 385.872464 247.931215 
L 391.213992 245.910993 
L 392.391873 245.768562 
L 393.566455 245.63137 
L 394.755388 245.589089 
L 397.180336 245.892446 
L 397.795266 246.14492 
L 399.016347 246.86366 
L 400.823196 247.525989 
L 402.603042 247.814054 
L 404.950665 247.613157 
L 406.115848 247.394228 
L 406.696715 247.227378 
L 408.446317 247.222821 
L 413.817289 247.848658 
L 415.603383 247.965806 
L 417.980766 248.112396 
L 419.179243 248.269928 
L 420.989646 248.592812 
L 426.433139 250.578083 
L 447.390157 255.39544 
L 453.934954 256.565107 
L 456.337331 257.188083 
L 458.746712 257.872408 
L 465.336929 259.548235 
L 467.714885 260.025602 
L 471.87064 260.598979 
L 473.652759 260.796681 
L 474.838228 260.855756 
L 480.757585 260.799357 
L 490.316536 260.86337 
L 497.469182 260.146697 
L 502.311968 259.938291 
L 506.525375 259.373863 
L 513.215935 258.38856 
L 515.657009 257.841568 
L 519.325778 256.764266 
L 521.168662 256.266702 
L 524.894948 255.286162 
L 529.961884 254.184128 
L 532.48323 253.515569 
L 534.355636 252.794097 
L 538.160522 251.206349 
L 545.917331 248.0628 
L 550.512055 245.855564 
L 554.514822 243.984854 
L 559.931993 241.35891 
L 564.77457 238.999386 
L 567.593082 237.692275 
L 569.727703 236.732365 
L 576.966327 232.8094 
L 579.917578 231.00675 
L 582.156134 229.481408 
L 585.953288 226.605354 
L 589.839419 223.380876 
L 593.819927 219.569923 
L 598.712766 214.622992 
L 601.214765 211.945422 
L 604.681283 208.35745 
L 607.285386 205.110335 
L 609.863337 201.732704 
L 612.580897 198.582129 
L 617.318646 193.469607 
L 619.1917 191.072479 
L 624.93516 183.450194 
L 632.997583 173.488685 
L 642.601126 161.97352 
L 647.002802 156.242283 
L 653.761956 147.527698 
L 656.078493 144.764582 
L 660.804718 139.798596 
L 665.589881 134.80587 
L 671.613838 128.041763 
L 679.058718 119.764964 
L 681.618752 117.18422 
L 684.335752 114.805054 
L 685.66207 113.27733 
L 686.919673 111.534912 
L 691.85008 103.70908 
L 693.27598 102.036828 
L 694.735641 100.699906 
L 696.145004 99.177242 
L 697.510024 97.482247 
L 700.185941 93.436196 
L 705.633531 84.655055 
L 707.017749 82.360454 
L 708.427891 80.24437 
L 709.909843 78.298489 
L 714.619998 72.804944 
L 718.983519 66.200588 
L 720.761989 64.715416 
L 722.702879 63.541266 
L 724.286414 61.460532 
L 725.639378 58.788895 
L 726.888354 55.630201 
L 728.268054 52.455129 
L 729.870937 49.495029 
L 731.761373 47.772709 
L 733.572755 46.759384 
L 735.254251 45.268538 
L 736.837119 42.699724 
L 738.345379 39.705877 
L 739.791382 36.478125 
L 739.791382 36.478125 
" clip-path="url(#p2dab76fa89)" style="fill: none; stroke: #0000ff; stroke-width: 1.5; stroke-linecap: square"/>
   </g>
   <g id="patch_12">
    <path d="M 40.603125 301.078125 
L 40.603125 23.878125 
" style="fill: none; stroke: #000000; stroke-width: 0.8; stroke-linejoin: miter; stroke-linecap: square"/>
   </g>
   <g id="patch_13">
    <path d="M 835.213125 301.078125 
L 835.213125 23.878125 
" style="fill: none; stroke: #0000ff; stroke-width: 0.8; stroke-linejoin: miter; stroke-linecap: square"/>
   </g>
   <g id="patch_14">
    <path d="M 40.603125 301.078125 
L 769.603125 301.078125 
" style="fill: none; stroke: #000000; stroke-width: 0.8; stroke-linejoin: miter; stroke-linecap: square"/>
   </g>
   <g id="patch_15">
    <path d="M 40.603125 23.878125 
L 769.603125 23.878125 
" style="fill: none; stroke: #000000; stroke-width: 0.8; stroke-linejoin: miter; stroke-linecap: square"/>
   </g>
  </g>
 </g>
 <defs>
  <clipPath id="p2dab76fa89">
   <rect x="40.603125" y="23.878125" width="729" height="277.2"/>
  </clipPath>
 </defs>
</svg>
